<svg width="46" height="57" viewBox="0 0 46 57" fill="none" xmlns="http://www.w3.org/2000/svg">
<path d="M2.77467 28.516L7.536 30.6324C7.99368 30.8358 8.48747 30.9455 8.98823 30.955C9.489 30.9644 9.98658 30.8735 10.4516 30.6875L11.9493 30.0875C12.4727 29.8781 12.9422 29.5533 13.3229 29.1374C13.7035 28.7215 13.9854 28.2251 14.1477 27.6852L15.2282 24.0934C15.3265 23.6997 15.5089 23.3319 15.7627 23.0153C16.0166 22.6988 16.336 22.4409 16.6989 22.2594L19.2911 20.9609V26.859C19.2913 27.9037 19.0005 28.9279 18.4514 29.8166C17.9023 30.7054 17.1165 31.4237 16.1821 31.891L9.47662 35.2484C7.91999 36.0276 6.61106 37.2249 5.69643 38.706C4.78181 40.1871 4.29762 41.8936 4.2981 43.6344V45.3359H41.7817V22.8359C41.7817 10.4141 31.7129 0.335938 19.2911 0.335938H1.95435C1.58139 0.335938 1.22371 0.484095 0.959985 0.747818C0.696262 1.01154 0.548104 1.36923 0.548104 1.74219C0.547913 2.05057 0.619743 2.35475 0.75787 2.63047L2.4231 5.96094L1.36842 7.01562C1.10746 7.27748 0.900696 7.58822 0.759939 7.93006C0.619182 8.2719 0.547198 8.63813 0.548104 9.00781V25.0871C0.547659 25.8128 0.757789 26.523 1.15301 27.1317C1.54823 27.7403 2.11155 28.2212 2.77467 28.516ZM6.64185 11.5859C7.1054 11.5859 7.55854 11.7234 7.94397 11.9809C8.3294 12.2385 8.6298 12.6045 8.8072 13.0328C8.98459 13.461 9.031 13.9323 8.94057 14.3869C8.85014 14.8416 8.62691 15.2592 8.29914 15.587C7.97136 15.9147 7.55374 16.138 7.0991 16.2284C6.64445 16.3188 6.1732 16.2724 5.74494 16.095C5.31668 15.9176 4.95063 15.6172 4.6931 15.2318C4.43556 14.8464 4.2981 14.3932 4.2981 13.9297C4.2981 13.3081 4.54503 12.7119 4.98457 12.2724C5.42411 11.8329 6.02025 11.5859 6.64185 11.5859ZM43.6731 49.0859H2.4231C1.92582 49.0859 1.44891 49.2835 1.09728 49.6351C0.745648 49.9867 0.548104 50.4637 0.548104 50.9609V54.7109C0.548104 55.2082 0.745648 55.6851 1.09728 56.0368C1.44891 56.3884 1.92582 56.5859 2.4231 56.5859H43.6731C44.1704 56.5859 44.6473 56.3884 44.9989 56.0368C45.3506 55.6851 45.5481 55.2082 45.5481 54.7109V50.9609C45.5481 50.4637 45.3506 49.9867 44.9989 49.6351C44.6473 49.2835 44.1704 49.0859 43.6731 49.0859Z" fill="#269690"/>
</svg>
